<svg width="44" height="44" viewBox="0 0 44 44" fill="none" xmlns="http://www.w3.org/2000/svg">
<path d="M22 0.125C9.91992 0.125 0.125 9.91992 0.125 22C0.125 34.0801 9.91992 43.875 22 43.875C34.0801 43.875 43.875 34.0801 43.875 22C43.875 9.91992 34.0801 0.125 22 0.125ZM31.4482 14.8564L21.165 29.1143C21.0213 29.3149 20.8318 29.4783 20.6123 29.5911C20.3928 29.7038 20.1496 29.7627 19.9028 29.7627C19.6561 29.7627 19.4128 29.7038 19.1933 29.5911C18.9738 29.4783 18.7844 29.3149 18.6406 29.1143L12.5518 20.6768C12.3662 20.418 12.5518 20.0566 12.8691 20.0566H15.1592C15.6572 20.0566 16.1309 20.2959 16.4238 20.7061L19.9004 25.5303L27.5762 14.8857C27.8691 14.4805 28.3379 14.2363 28.8408 14.2363H31.1309C31.4482 14.2363 31.6338 14.5977 31.4482 14.8564Z" fill="#E6E6E6"/>
</svg>
