<svg width="59" height="72" viewBox="0 0 59 72" fill="none" xmlns="http://www.w3.org/2000/svg">
<g opacity="0.6">
<path opacity="0.6" d="M40.8689 18.6211H2.93164V60.5363V71.3036H6.29214L6.29539 60.5363H34.7816V71.3036H41.3661L41.3759 56.2983H40.8201L40.8689 18.6211ZM12.7824 57.1596H11.1314H6.29539V56.4739V56.2983V48.4171H12.7824V57.1596ZM12.7824 44.2993H11.1314H6.29539V35.5601H12.7824V44.2993ZM12.7824 31.4391H11.1314H6.29539V22.6998H12.7824V31.4391ZM23.5691 57.1596H21.9181H17.0854V48.4203H23.5724V57.1596H23.5691ZM23.5691 44.2993H21.9181H17.0854V35.5601H23.5724V44.2993H23.5691ZM23.5691 31.4391H21.9181H17.0854V22.6998H23.5724V31.4391H23.5691ZM34.7816 57.1596H33.1306H28.2946V48.4203H34.7816V57.1596ZM34.7816 44.2993H33.1306H28.2946V35.5601H34.7816V44.2993ZM34.7816 31.4391H33.1306H28.2946V22.6998H34.7816V31.4391Z" fill="#AAAAAA"/>
<path opacity="0.6" d="M44.5543 46.1875V71.3067H57.6485L57.6681 46.1875H44.5543ZM54.3531 57.1595H52.7021H47.8661V48.4203H54.3531V57.1595Z" fill="#AAAAAA"/>
<path opacity="0.6" d="M27.872 2.27344H8.34277V16.9764H27.8428L27.872 2.27344ZM21.645 10.5089H18.7493V13.4014H15.4148V10.5057H12.5223V7.16794H15.4148V4.27544H18.7558V7.16794H21.6483V10.5089H21.645Z" fill="#AAAAAA"/>
</g>
<path d="M6.3733 13.3116C6.3733 13.2661 6.37655 13.2174 6.3798 13.1719H0.741043C0.516793 13.1719 0.331543 13.3539 0.331543 13.5814V71.3046H1.15054V13.9876H6.4253C6.37655 13.7666 6.3603 13.5391 6.3733 13.3116Z" fill="#1C3E58"/>
<path d="M41.2782 13.168H27.8752C27.9272 13.4247 27.937 13.6977 27.8915 13.987H40.8687V71.3007H41.6877V13.5775C41.6877 13.3532 41.5057 13.168 41.2782 13.168Z" fill="#1C3E58"/>
<path d="M58.1556 71.3022H57.1806V42.725H41.3759V41.75H57.6681C57.9379 41.75 58.1556 41.9677 58.1556 42.2375V71.3022Z" fill="#1C3E58"/>
<path d="M56.742 42.235H55.767V40.3695H41.376V39.3945H56.2545C56.5242 39.3945 56.742 39.6123 56.742 39.882V42.235Z" fill="#1C3E58"/>
<path d="M40.8885 13.1798H39.9135V12.2211H27.8755V11.2461H40.401C40.6707 11.2461 40.8885 11.4638 40.8885 11.7336V13.1798Z" fill="#1C3E58"/>
<path d="M2.26553 13.1798H1.29053V11.7336C1.29053 11.4638 1.50828 11.2461 1.77803 11.2461H6.42553V12.2211H2.26553V13.1798Z" fill="#1C3E58"/>
<path d="M27.8721 17.4619H6.2953C6.02555 17.4619 5.8078 17.2442 5.8078 16.9744V0.698438C5.8078 0.428688 6.02555 0.210938 6.2953 0.210938H27.8688C28.1386 0.210938 28.3563 0.428688 28.3563 0.698438V16.9744C28.3596 17.2442 28.1418 17.4619 27.8721 17.4619ZM6.7828 16.4869H27.3813V1.18594H6.7828V16.4869Z" fill="#1C3E58"/>
<path d="M12.7821 31.9252H6.29512C6.02537 31.9252 5.80762 31.7074 5.80762 31.4377V22.6984C5.80762 22.4287 6.02537 22.2109 6.29512 22.2109H12.7821C13.0519 22.2109 13.2696 22.4287 13.2696 22.6984V31.4377C13.2696 31.7074 13.0519 31.9252 12.7821 31.9252ZM6.78262 30.9502H12.2946V23.1859H6.78262V30.9502Z" fill="#1C3E58"/>
<path d="M23.5689 31.9252H17.0852C16.8154 31.9252 16.5977 31.7074 16.5977 31.4377V22.6984C16.5977 22.4287 16.8154 22.2109 17.0852 22.2109H23.5722C23.8419 22.2109 24.0597 22.4287 24.0597 22.6984V31.4377C24.0564 31.7074 23.8387 31.9252 23.5689 31.9252ZM17.5727 30.9502H23.0847V23.1859H17.5727V30.9502Z" fill="#1C3E58"/>
<path d="M34.7816 31.9252H28.2946C28.0249 31.9252 27.8071 31.7074 27.8071 31.4377V22.6984C27.8071 22.4287 28.0249 22.2109 28.2946 22.2109H34.7816C35.0514 22.2109 35.2691 22.4287 35.2691 22.6984V31.4377C35.2691 31.7074 35.0514 31.9252 34.7816 31.9252ZM28.7821 30.9502H34.2941V23.1859H28.7821V30.9502Z" fill="#1C3E58"/>
<path d="M12.7823 44.7846H6.2953C6.02555 44.7846 5.8078 44.5668 5.8078 44.2971V35.5578C5.8078 35.2881 6.02555 35.0703 6.2953 35.0703H12.7823C13.052 35.0703 13.2698 35.2881 13.2698 35.5578V44.2971C13.2698 44.5668 13.052 44.7846 12.7823 44.7846ZM6.7828 43.8096H12.2948V36.0453H6.7828V43.8096Z" fill="#1C3E58"/>
<path d="M23.569 44.7846H17.0853C16.8155 44.7846 16.5978 44.5668 16.5978 44.2971V35.5578C16.5978 35.2881 16.8155 35.0703 17.0853 35.0703H23.5723C23.842 35.0703 24.0598 35.2881 24.0598 35.5578V44.2971C24.0565 44.5668 23.8388 44.7846 23.569 44.7846ZM17.5728 43.8096H23.0848V36.0453H17.5728V43.8096Z" fill="#1C3E58"/>
<path d="M34.7816 44.7846H28.2946C28.0248 44.7846 27.8071 44.5668 27.8071 44.2971V35.5578C27.8071 35.2881 28.0248 35.0703 28.2946 35.0703H34.7816C35.0513 35.0703 35.2691 35.2881 35.2691 35.5578V44.2971C35.2691 44.5668 35.0513 44.7846 34.7816 44.7846ZM28.7821 43.8096H34.2941V36.0453H28.7821V43.8096Z" fill="#1C3E58"/>
<path d="M12.7821 57.6439H6.29512C6.02537 57.6439 5.80762 57.4262 5.80762 57.1564V48.4172C5.80762 48.1474 6.02537 47.9297 6.29512 47.9297H12.7821C13.0519 47.9297 13.2696 48.1474 13.2696 48.4172V57.1564C13.2696 57.4262 13.0519 57.6439 12.7821 57.6439ZM6.78262 56.6689H12.2946V48.9047H6.78262V56.6689Z" fill="#1C3E58"/>
<path d="M23.5689 57.6439H17.0852C16.8154 57.6439 16.5977 57.4262 16.5977 57.1564V48.4172C16.5977 48.1474 16.8154 47.9297 17.0852 47.9297H23.5722C23.8419 47.9297 24.0597 48.1474 24.0597 48.4172V57.1564C24.0564 57.4262 23.8387 57.6439 23.5689 57.6439ZM17.5727 56.6689H23.0847V48.9047H17.5727V56.6689Z" fill="#1C3E58"/>
<path d="M34.7816 57.6439H28.2946C28.0249 57.6439 27.8071 57.4262 27.8071 57.1564V48.4172C27.8071 48.1474 28.0249 47.9297 28.2946 47.9297H34.7816C35.0514 47.9297 35.2691 48.1474 35.2691 48.4172V57.1564C35.2691 57.4262 35.0514 57.6439 34.7816 57.6439ZM28.7821 56.6689H34.2941V48.9047H28.7821V56.6689Z" fill="#1C3E58"/>
<path d="M54.3529 57.6439H47.8659C47.5962 57.6439 47.3784 57.4262 47.3784 57.1564V48.4172C47.3784 48.1474 47.5962 47.9297 47.8659 47.9297H54.3529C54.6226 47.9297 54.8404 48.1474 54.8404 48.4172V57.1564C54.8404 57.4262 54.6226 57.6439 54.3529 57.6439ZM48.3534 56.6689H53.8654V48.9047H48.3534V56.6689Z" fill="#1C3E58"/>
<path d="M35.2691 71.3017H34.2941V61.4477H6.7828V71.3017H5.8078V60.9602C5.8078 60.6904 6.02555 60.4727 6.2953 60.4727H34.7816C35.0513 60.4727 35.2691 60.6904 35.2691 60.9602V71.3017Z" fill="#1C3E58"/>
<path d="M20.8129 60.9648H19.8379V71.3063H20.8129V60.9648Z" fill="#1C3E58"/>
<path d="M18.7493 13.8829H15.4148C15.145 13.8829 14.9273 13.6652 14.9273 13.3954V10.9872H12.5223C12.2525 10.9872 12.0348 10.7694 12.0348 10.4997V7.16516C12.0348 6.89541 12.2525 6.67766 12.5223 6.67766H14.9273V4.27266C14.9273 4.00291 15.145 3.78516 15.4148 3.78516H18.7558C18.8858 3.78516 19.0093 3.83716 19.1003 3.92816C19.1913 4.01916 19.2433 4.14266 19.2433 4.27266V6.67441H21.6483C21.918 6.67441 22.1358 6.89216 22.1358 7.16191V10.5029C22.1358 10.6329 22.0838 10.7564 21.9928 10.8474C21.9018 10.9384 21.7783 10.9904 21.6483 10.9904H19.24V13.3954C19.2368 13.6652 19.019 13.8829 18.7493 13.8829ZM15.9023 12.9079H18.265V10.5029C18.265 10.3729 18.317 10.2494 18.408 10.1584C18.499 10.0674 18.6225 10.0154 18.7525 10.0154H21.1608V7.64941H18.7558C18.6258 7.64941 18.5023 7.59741 18.4113 7.50641C18.3203 7.41541 18.2683 7.29191 18.2683 7.16191V4.76016H15.9023V7.16516C15.9023 7.43491 15.6845 7.65265 15.4148 7.65265H13.0098V10.0154H15.4148C15.6845 10.0154 15.9023 10.2332 15.9023 10.5029V12.9079Z" fill="#1C3E58"/>
</svg>
