<svg width="112" height="74" viewBox="0 0 112 74" fill="none" xmlns="http://www.w3.org/2000/svg">
<path d="M81.1064 13.7013C81.2198 12.5631 81.1215 11.4436 80.9287 10.3241C80.649 8.71409 80.0518 7.2314 79.1748 5.86103C78.3433 4.56179 77.2924 3.45352 76.0526 2.52496C74.4877 1.35303 72.7338 0.585473 70.8136 0.229776C68.9274 -0.122177 67.045 -0.0660144 65.1777 0.420729C63.7148 0.802636 62.3654 1.42417 61.1256 2.27784C59.7686 3.21389 58.6913 4.44947 57.5195 5.5877C56.9941 6.09691 56.48 6.61735 55.9584 7.13405C55.3838 7.70316 54.8055 8.26853 54.2309 8.83765C53.7055 9.35809 53.1801 9.88228 52.6547 10.4065C52.0915 10.9643 51.5245 11.5147 50.9613 12.0726C50.4359 12.5931 49.918 13.1247 49.3888 13.6452C48.8218 14.2068 48.2435 14.7647 47.6765 15.3263C46.86 16.1313 46.0549 16.9401 45.2346 17.7413C44.8188 18.1457 44.3804 18.5276 43.9419 18.9282C45.7223 20.6805 47.427 22.3654 49.1582 24.069C49.2338 23.9978 49.3208 23.9192 49.4039 23.8368C51.4942 21.7663 53.5808 19.6958 55.6673 17.6252C58.4985 14.8209 61.3372 12.0239 64.1609 9.20832C64.9358 8.43328 65.7749 7.77056 66.8409 7.46354C69.0294 6.83077 71.2596 7.50847 72.6733 9.27946C73.8716 10.7846 74.1399 12.4995 73.5692 14.3379C73.2441 15.3825 72.5524 16.1762 71.7813 16.9176C71.0782 17.5953 70.3865 18.2805 69.6796 18.9694C71.4184 20.6842 73.1345 22.3729 74.8695 24.0877C75.4251 23.5298 75.9846 22.957 76.5553 22.3953C77.4776 21.493 78.3886 20.5831 79.0992 19.4973C80.2521 17.7263 80.8947 15.7868 81.1064 13.7013Z" fill="#FC776A"/>
<path d="M49.1128 36.7756C50.8403 35.0645 52.545 33.3722 54.2196 31.7135C53.8794 31.3541 53.5354 30.9721 53.1725 30.6127C52.0763 29.5194 50.9726 28.4336 49.8726 27.344C48.7613 26.2432 47.6462 25.1425 46.5387 24.0379C45.3291 22.8323 44.1233 21.6229 42.9099 20.4173C41.5605 19.0769 40.2073 17.7402 38.8578 16.3998C38.2379 15.7857 37.807 15.0594 37.5349 14.2282C37.0624 12.7792 37.2287 11.3788 37.9318 10.0646C38.6159 8.78787 39.6894 7.88927 41.0956 7.47741C43.0536 6.90455 44.8377 7.28645 46.3648 8.6381C47.1473 9.33078 47.8541 10.1021 48.5988 10.8322C48.7689 11.0007 48.9503 11.1617 49.1317 11.3264C50.8403 9.61908 52.5337 7.92296 54.2876 6.16694C54.2158 6.11452 54.1024 6.05087 54.0117 5.96101C53.4485 5.41811 52.9004 4.85648 52.3296 4.32481C51.6908 3.72574 51.0633 3.11544 50.3791 2.57253C49.1884 1.62151 47.8277 0.977508 46.3648 0.535694C44.4408 -0.0446539 42.4828 -0.145747 40.5135 0.194974C38.1774 0.603089 36.1023 1.59155 34.3143 3.16037C33.1199 4.20499 32.156 5.42185 31.4113 6.81094C30.7801 7.99036 30.3794 9.2484 30.1564 10.5626C29.8162 12.5508 29.975 14.509 30.5835 16.426C31.211 18.4067 32.2921 20.114 33.77 21.5817C38.7255 26.4904 43.6735 31.4027 48.629 36.3113C48.7916 36.4724 48.9654 36.6296 49.1128 36.7756Z" fill="#FC776A"/>
<path d="M56.873 18.9694C60.721 22.7772 64.5577 26.5813 68.383 30.3704C70.0802 28.6818 71.7774 26.9931 73.4595 25.3157C69.6568 21.5454 65.8126 17.7338 61.9722 13.9297C60.2901 15.5921 58.5854 17.2732 56.873 18.9694Z" fill="#FC776A"/>
<path d="M61.8702 36.93C63.5712 35.2451 65.2722 33.5602 66.9769 31.8828C67.1243 31.7368 67.1016 31.6619 66.9618 31.5234C65.5103 30.0931 64.0663 28.6516 62.6224 27.2176C62.4221 27.0191 62.2104 26.8244 62.0252 26.6484C58.1621 30.4712 54.3179 34.2791 50.4585 38.1019C52.1595 39.7643 53.8718 41.4417 55.6068 43.1341C55.6219 43.1228 55.6522 43.0966 55.6824 43.0667C56.7181 42.0408 57.7538 41.0149 58.7895 39.9889C59.8139 38.9743 60.8421 37.9521 61.8702 36.93Z" fill="#FC776A"/>
<path d="M91.3803 58.5678C91.1573 58.5753 90.8852 58.6876 90.7264 58.8449C89.0481 60.4886 87.3849 62.151 85.718 63.8096C85.6084 63.9182 85.495 64.0193 85.3664 64.1429C85.2379 64.0231 85.1245 63.922 85.0149 63.8134C83.3366 62.1472 81.6621 60.4773 79.9838 58.8149C79.8779 58.7101 79.7381 58.5715 79.6133 58.5715C78.6079 58.5528 77.6062 58.5603 76.6045 58.5603C76.6045 63.7198 76.6045 68.8231 76.6045 73.9227C77.6553 73.9227 78.6759 73.9227 79.7494 73.9227C79.7494 70.2646 79.7494 66.629 79.7494 62.9223C81.6583 64.7419 83.4991 66.498 85.3664 68.2765C87.2337 66.4942 89.0784 64.7382 91.0175 62.8886C91.0175 66.6477 91.0175 70.2833 91.0175 73.9227C92.0872 73.9227 93.104 73.9227 94.1322 73.9227C94.1322 68.7931 94.1322 63.6898 94.1322 58.5566C93.1947 58.5566 92.2875 58.5378 91.3803 58.5678Z" fill="#FC776A"/>
<path d="M23.4961 66.9242C26.4634 66.9242 29.4042 66.9242 32.3525 66.9242C32.3525 66.0593 32.3525 65.2356 32.3525 64.352C29.3815 64.352 26.4331 64.352 23.4885 64.352C23.4885 63.3111 23.4885 62.3301 23.4885 61.2967C26.8489 61.2967 30.1791 61.2967 33.513 61.2967C33.513 60.3607 33.513 59.4771 33.513 58.5859C29.1018 58.5859 24.717 58.5859 20.3323 58.5859C20.3323 63.7155 20.3323 68.8225 20.3323 73.9221C24.8115 73.9221 29.2567 73.9221 33.7058 73.9221C33.7058 73.016 33.7058 72.1361 33.7058 71.2113C30.2849 71.2113 26.8905 71.2113 23.4923 71.2113C23.4961 69.7623 23.4961 68.362 23.4961 66.9242Z" fill="#FC776A"/>
<path d="M101.779 71.2147C101.779 69.7695 101.779 68.3692 101.779 66.9314C104.743 66.9314 107.68 66.9314 110.632 66.9314C110.632 66.0553 110.632 65.224 110.632 64.3479C107.657 64.3479 104.72 64.3479 101.775 64.3479C101.775 63.322 101.775 62.341 101.775 61.3039C105.132 61.3039 108.466 61.3039 111.792 61.3039C111.792 60.3566 111.792 59.4618 111.792 58.5781C107.381 58.5781 103.004 58.5781 98.6077 58.5781C98.6077 63.6964 98.6077 68.7923 98.6077 73.9218C103.091 73.9218 107.536 73.9218 112 73.9218C112 73.0194 112 72.1433 112 71.2147C108.583 71.2147 105.192 71.2147 101.779 71.2147Z" fill="#FC776A"/>
<path d="M12.7649 62.5281C9.5406 62.5281 6.36166 62.5281 3.13736 62.5281C3.13736 61.1989 3.13736 59.8997 3.13736 58.5742C2.07141 58.5742 1.05461 58.5742 0 58.5742C0 63.7075 0 68.8108 0 73.9066C1.06217 73.9066 2.09031 73.9066 3.16004 73.9066C3.16004 71.0049 3.16004 68.1369 3.16004 65.2651C6.38056 65.2651 9.55572 65.2651 12.7914 65.2651C12.7914 68.1668 12.7914 71.0461 12.7914 73.9066C13.88 73.9066 14.9081 73.9066 15.9249 73.9066C15.9249 68.7771 15.9249 63.6813 15.9249 58.5817C14.8703 58.5817 13.8384 58.5817 12.7611 58.5817C12.7649 59.9109 12.7649 61.2139 12.7649 62.5281Z" fill="#FC776A"/>
<path d="M42.5586 58.543C42.5586 58.543 35.4825 73.5272 35.2897 73.9428C36.3784 73.9428 38.6085 73.9316 38.6085 73.9316C38.6085 73.9316 39.3796 72.344 39.6707 71.6738C39.769 71.4454 39.9013 71.3668 40.147 71.3668C42.9479 71.3743 45.7489 71.3743 48.5536 71.3668C48.8031 71.3668 48.9316 71.4492 49.0336 71.6738C49.3436 72.3515 50.1638 73.999 50.1638 73.999C50.1638 73.999 52.3524 73.9428 53.4297 73.9428C53.3806 73.8267 45.9152 58.5505 45.9152 58.5505L42.5586 58.543ZM41.0353 68.7646C42.1201 66.4469 43.1823 64.1742 44.286 61.8191C45.4162 64.1742 46.5086 66.4507 47.6237 68.7646C45.4124 68.7646 43.2579 68.7646 41.0353 68.7646Z" fill="#FC776A"/>
<path d="M58.9749 58.5781C57.9165 58.5781 56.8997 58.5781 55.8489 58.5781C55.8489 63.7114 55.8489 68.8147 55.8489 73.9218C59.9123 73.9218 63.9455 73.9218 68.0014 73.9218C68.0014 73.0157 68.0014 72.1358 68.0014 71.1923C64.9963 71.1923 62.0064 71.1923 58.9787 71.1923C58.9749 66.9539 58.9749 62.7754 58.9749 58.5781Z" fill="#FC776A"/>
</svg>
