<svg width="72" height="79" viewBox="0 0 72 79" fill="none" xmlns="http://www.w3.org/2000/svg">
<g opacity="0.6">
<path opacity="0.6" d="M44.93 78.0864C45.0051 76.7135 45.223 74.9945 45.8802 74.3099C46.6352 73.5163 47.1723 73.3094 48.8362 73.3245C50.4625 73.3357 50.808 73.9752 50.9057 75.2992V78.0902H57.6663V75.2992C57.4447 73.9789 57.7865 73.3395 59.4128 73.3245C61.0766 73.3132 61.61 73.5163 62.3687 74.3099C63.0222 74.9983 63.2438 76.7135 63.3189 78.0864H68.7161C66.0194 67.3024 58.2484 58.6399 48.1188 54.713L35.8482 64.3798L23.8519 54.6641C13.6584 58.5647 5.83105 67.2573 3.12305 78.0864H15.3297C14.8415 77.2062 14.5523 76.2809 14.5523 75.2879C14.5523 72.4556 16.8434 70.1611 19.6716 70.1611C22.4998 70.1611 24.7909 72.4556 24.7909 75.2879C24.7909 76.2809 24.5016 77.2062 24.0134 78.0864H44.93Z" fill="#7DC593"/>
</g>
<g opacity="0.6">
<path opacity="0.6" d="M53.1261 19.1094H20.4683L20.0547 23.5805H53.5732L53.1261 19.1094Z" fill="#7DC593"/>
</g>
<g opacity="0.6">
<path opacity="0.6" d="M20.8892 17.1717L21.8691 6.42986C21.8691 6.42986 34.5447 -3.12343 52.1684 7.04091L53.2452 17.5182L43.2485 17.1009L41.0725 17.0599H36.9889H32.5811H29.8426L28.7956 17.2462L20.8892 17.1717Z" fill="#7DC593"/>
</g>
<path d="M1.03374 76.8315C1.00627 76.8315 0.971941 76.8315 0.937608 76.8269C0.37455 76.7948 -0.0443097 76.4599 0.0037562 76.0791C1.39767 65.7252 11.7456 57.9541 20.1777 53.2565C20.6172 53.0134 21.2626 53.0547 21.6266 53.3437C21.9905 53.6373 21.9287 54.0685 21.4961 54.3116C13.3592 58.8395 3.3821 66.317 2.04999 76.1984C2.00879 76.5654 1.56247 76.8315 1.03374 76.8315Z" fill="#1C3E58"/>
<path d="M70.8065 76.8313C70.2778 76.8313 69.8315 76.5606 69.7835 76.2027C68.4515 66.3155 58.4754 58.8417 50.3462 54.3133C49.9068 54.0701 49.8519 53.6343 50.2158 53.3452C50.5797 53.0516 51.2319 53.0149 51.6645 53.258C60.1026 57.9562 70.4426 65.7283 71.8363 76.0834C71.8844 76.4596 71.4656 76.7945 70.9026 76.8313C70.8682 76.8313 70.8339 76.8313 70.8065 76.8313Z" fill="#1C3E58"/>
<path d="M52.7907 17.6139H18.8848C18.5755 17.6139 18.3259 17.3642 18.3259 17.055C18.3259 16.7457 18.5755 16.4961 18.8848 16.4961H52.787C53.0963 16.4961 53.3459 16.7457 53.3459 17.055C53.3496 17.3642 53.0963 17.6139 52.7907 17.6139Z" fill="#1C3E58"/>
<path d="M53.5437 24.323H42.3622C42.0529 24.323 41.8033 24.0733 41.8033 23.7641C41.8033 23.4548 42.0529 23.2052 42.3622 23.2052H52.9401L51.3156 5.88333C50.4549 5.09343 45.5106 0.976276 35.8157 1.11786C26.1208 0.976276 21.1579 5.09343 20.2972 5.88706L18.6727 23.2089H43.3831C43.6923 23.2089 43.9419 23.4586 43.9419 23.7678C43.9419 24.0771 43.6923 24.3267 43.3831 24.3267H18.0691C17.9126 24.3267 17.7636 24.2634 17.6592 24.1479C17.5549 24.0323 17.499 23.8796 17.5139 23.7231L19.2018 5.58898C19.2129 5.4623 19.2651 5.33934 19.3545 5.2462C19.5669 5.02637 24.6453 -0.152681 35.8157 0.00380806C46.9749 -0.160133 52.0496 5.02264 52.2582 5.2462C52.3477 5.33934 52.3998 5.45857 52.411 5.58898L54.0988 23.7231C54.11 23.8796 54.0579 24.0323 53.9535 24.1479C53.8455 24.2596 53.6964 24.323 53.5437 24.323Z" fill="#1C3E58"/>
<path d="M35.8047 64.5892C35.6817 64.5892 35.5588 64.5482 35.4545 64.4662L22.7863 54.3317C22.5441 54.1379 22.5068 53.7877 22.7006 53.5455C22.8943 53.3033 23.2446 53.2661 23.4868 53.4598L35.8084 63.3149L48.1301 53.4598C48.3723 53.2661 48.7225 53.307 48.9163 53.5455C49.11 53.7877 49.069 54.1379 48.8306 54.3317L36.1624 64.4662C36.0506 64.5482 35.9277 64.5892 35.8047 64.5892Z" fill="#1C3E58"/>
<path d="M36.0392 43.7072C34.1465 43.7072 31.6203 42.3286 31.5122 42.269L32.0525 41.2891C32.0749 41.3002 34.4334 42.5894 36.0392 42.5894C37.8202 42.5894 39.9887 41.3114 40.0111 41.3002L40.5812 42.2615C40.4806 42.3174 38.1295 43.7072 36.0392 43.7072Z" fill="#1C3E58"/>
<path d="M24.2888 25.4367L24.2876 26.5508L28.7587 26.5555L28.7599 25.4414L24.2888 25.4367Z" fill="#1C3E58"/>
<path d="M36.0576 38.4888C34.4666 38.4888 33.4755 37.6914 33.4345 37.6579L33.2296 37.4902L33.2222 29.5391H34.3474L34.3549 36.9276C34.6492 37.099 35.2528 37.371 36.0576 37.371C37.2275 37.371 37.9578 36.8009 37.9653 36.7935L38.6807 37.6579C38.6397 37.6914 37.6486 38.4888 36.0576 38.4888Z" fill="#1C3E58"/>
<path d="M36.2144 52.442C33.1889 52.442 30.3461 51.2646 28.2111 49.1259L24.2318 45.1466C22.7116 43.6264 21.5417 41.8454 20.7518 39.8446C20.6698 39.6061 18.982 34.4941 18.982 25.075H20.0997C20.0997 34.3153 21.7839 39.4124 21.8025 39.4608C22.5253 41.2902 23.6133 42.9446 25.0217 44.3567L29.001 48.336C30.9273 50.2623 33.4907 51.3242 36.2144 51.3242C38.9604 51.3242 41.6319 50.1915 43.5433 48.2205L47.3102 44.3343C48.5435 43.0601 49.5644 41.4616 50.4326 39.4459C50.9691 38.194 51.3305 32.4672 51.4237 23.9609H52.5414C52.4744 30.1162 52.2322 38.0897 51.4609 39.8856C50.5406 42.028 49.4452 43.7382 48.115 45.1093L44.3481 48.9992C42.2243 51.1863 39.2622 52.442 36.2144 52.442Z" fill="#1C3E58"/>
<path d="M26.1172 56.1456L25.4019 55.2886C28.2149 52.9413 28.0473 48.7608 28.0435 48.716L29.1613 48.6602C29.1688 48.8539 29.3662 53.4331 26.1172 56.1456Z" fill="#1C3E58"/>
<path d="M45.5813 56.1221C42.7831 53.4319 43.1557 49.2179 43.1743 49.0391L44.2884 49.1471C44.2846 49.1844 43.9568 53.0035 46.36 55.3173L45.5813 56.1221Z" fill="#1C3E58"/>
<path d="M34.1877 46.8529L33.748 45.8245C34.1355 45.6606 34.5342 45.5451 34.9366 45.4818C36.3487 45.2619 37.6901 45.7165 37.746 45.7388L37.3808 46.7933C37.3697 46.7895 36.2407 46.4095 35.108 46.5846C34.8025 46.6331 34.4895 46.7225 34.1877 46.8529Z" fill="#1C3E58"/>
<path d="M28.5722 31.4011C29.2925 31.4011 29.8763 30.8173 29.8763 30.097C29.8763 29.3768 29.2925 28.793 28.5722 28.793C27.852 28.793 27.2682 29.3768 27.2682 30.097C27.2682 30.8173 27.852 31.4011 28.5722 31.4011Z" fill="#1C3E58"/>
<path d="M42.3587 31.4011C43.0789 31.4011 43.6628 30.8173 43.6628 30.097C43.6628 29.3768 43.0789 28.793 42.3587 28.793C41.6385 28.793 41.0546 29.3768 41.0546 30.097C41.0546 30.8173 41.6385 31.4011 42.3587 31.4011Z" fill="#1C3E58"/>
<path d="M51.1143 35.7594V34.6417C51.785 34.6417 52.4221 34.2542 53.0071 33.4866C54.2478 31.8621 54.7508 29.1981 54.5422 28.4268C54.3894 27.8716 53.9795 27.4432 53.4691 27.309C53.0071 27.1861 52.5488 27.3277 52.1725 27.704L51.3826 26.9141C52.042 26.2546 52.9102 26.0049 53.756 26.2285C54.6502 26.467 55.3656 27.1972 55.6227 28.1325C55.9655 29.3844 55.2352 32.4136 53.8976 34.1647C53.1002 35.2043 52.1389 35.7594 51.1143 35.7594Z" fill="#1C3E58"/>
<path d="M20.5616 35.7594C19.5369 35.7594 18.5756 35.208 17.7783 34.1647C16.4407 32.4136 15.7141 29.3844 16.0532 28.1325C16.3103 27.1935 17.0219 26.4632 17.9199 26.2285C18.7694 26.0049 19.6338 26.2546 20.2933 26.9141L19.5034 27.704C19.1271 27.3277 18.6651 27.1861 18.2068 27.309C17.6963 27.4432 17.2827 27.8754 17.1337 28.4268C16.925 29.1981 17.428 31.8621 18.6688 33.4866C19.2538 34.2542 19.8909 34.6417 20.5616 34.6417V35.7594Z" fill="#1C3E58"/>
<line x1="34.9892" y1="78.0859" x2="34.9892" y2="64.8111" stroke="#1C3E58" stroke-width="0.3"/>
<circle cx="36.7786" cy="67.5428" r="0.390435" fill="#1C3E58"/>
<circle cx="36.7785" cy="70.6678" r="0.390435" fill="#1C3E58"/>
<circle cx="36.7785" cy="73.7928" r="0.390435" fill="#1C3E58"/>
<circle cx="36.7786" cy="76.9178" r="0.390435" fill="#1C3E58"/>
<rect x="12.4937" y="67.1523" width="15.6174" height="10.9322" fill="#CCE6D4"/>
<rect x="39.0435" y="68.7188" width="24.9878" height="9.37044" fill="#CCE6D4"/>
</svg>
